<svg id="regular" enable-background="new 0 0 24 24" height="512" viewBox="0 0 24 24" width="512" xmlns="http://www.w3.org/2000/svg"><circle cx="8.989" cy="12" fill="#fafafa" r="9"/><path d="m8.99 10c-1.1 0-2 .9-2 2s.9 2 2 2 2-.9 2-2-.9-2-2-2zm0 2.5c-.28 0-.5-.22-.5-.5s.22-.5.5-.5.5.22.5.5-.22.5-.5.5z" fill="#f44336"/><path d="m18.25 6h-2.5c-.414 0-.75-.336-.75-.75v-2.5c0-.199.079-.39.22-.53l2-2c.215-.214.538-.279.817-.163.28.116.463.39.463.693v1.75h1.75c.303 0 .577.183.693.463s.052.603-.163.817l-2 2c-.14.141-.331.22-.53.22z" fill="#2196f3"/><path d="m17.5 24c-3.584 0-6.5-2.916-6.5-6.5s2.916-6.5 6.5-6.5 6.5 2.916 6.5 6.5-2.916 6.5-6.5 6.5z" fill="#f44336"/><path d="m15.629 20.121c-.192 0-.384-.073-.53-.22-.293-.293-.293-.768 0-1.061l3.742-3.742c.293-.293.768-.293 1.061 0s.293.768 0 1.061l-3.742 3.742c-.147.147-.339.22-.531.22z"/><path d="m19.371 20.121c-.192 0-.384-.073-.53-.22l-3.742-3.742c-.293-.293-.293-.768 0-1.061s.768-.293 1.061 0l3.742 3.742c.293.293.293.768 0 1.061-.147.147-.339.22-.531.22z"/><path d="m17.5 24c-3.584 0-6.5-2.916-6.5-6.5s2.916-6.5 6.5-6.5 6.5 2.916 6.5 6.5-2.916 6.5-6.5 6.5zm0-11.5c-2.757 0-5 2.243-5 5s2.243 5 5 5 5-2.243 5-5-2.243-5-5-5z"/><path d="m9.009 21c-4.982 0-9.02-4.037-9.02-9s4.037-9 9-9c2.404 0 4.664.937 6.363 2.637.77.769 1.393 1.673 1.852 2.686.171.378.003.822-.374.993-.379.169-.821.003-.993-.374-.383-.849-.903-1.603-1.545-2.244-1.416-1.418-3.299-2.198-5.303-2.198-4.136 0-7.5 3.364-7.5 7.5s3.364 7.5 7.5 7.5c.414 0 .76.336.76.75s-.326.75-.74.75z"/><path d="m8.528 17.47c-.023 0-.048-.001-.071-.003-2.835-.268-4.973-2.618-4.973-5.468 0-3.032 2.467-5.499 5.499-5.499 1.463 0 2.844.569 3.89 1.604.343.343.64.735.886 1.171.203.361.076.818-.284 1.022-.362.201-.819.076-1.022-.284-.179-.317-.394-.603-.637-.846-.76-.751-1.767-1.167-2.833-1.167-2.205 0-3.999 1.794-3.999 3.999 0 2.071 1.554 3.779 3.613 3.974.412.039.715.405.677.817-.037.389-.363.68-.746.68z"/><path d="m9 12.75c-.192 0-.384-.073-.53-.22-.293-.293-.293-.768 0-1.061l6.5-6.5c.293-.293.768-.293 1.061 0s.293.768 0 1.061l-6.5 6.5c-.147.147-.339.22-.531.22z"/><path d="m18.25 6h-2.5c-.414 0-.75-.336-.75-.75v-2.5c0-.199.079-.39.22-.53l2-2c.215-.215.537-.277.817-.163.28.116.463.39.463.693v1.75h1.75c.304 0 .577.183.693.463.115.28.052.603-.163.817l-2 2c-.14.141-.331.22-.53.22zm-1.75-1.5h1.439l.5-.5h-.689c-.414 0-.75-.336-.75-.75v-.689l-.5.5z"/></svg>