<svg id="Capa_1" enable-background="new 0 0 512 512" height="512" viewBox="0 0 512 512" width="512" xmlns="http://www.w3.org/2000/svg"><g><path d="m512 256c0 64.669-23.979 123.737-63.53 168.798-.555.632-5.409 1.325-5.97 1.952-3.35 3.743-4.875 6.023-8.438 9.563-.738.733.882 2.761.135 3.486-46.087 44.69-108.929 72.201-178.197 72.201-69.269 0-132.112-27.511-178.199-72.203-.709-.687.816-2.851.115-3.547-3.526-3.499-4.515-4.969-7.833-8.667-.633-.705-5.928-2.072-6.553-2.785-39.551-45.061-63.53-104.129-63.53-168.798 0-141.385 114.615-256 256-256s256 114.615 256 256z" fill="#754ca0"/><path d="m156.656 55.79c33.162-4.776 64.929-2.957 94.054 4.442l5.792 278.881c-29.125-7.399-60.892-9.218-94.054-4.442s-64.664 15.705-93.309 31.423l-5.792-278.881c28.645-15.718 60.147-26.648 93.309-31.423z" fill="#958fca"/><path d="m448.472 89.656-5.606 269.931c-.062 2.966-3.212 4.826-5.844 3.458-27.102-14.085-56.626-23.914-87.6-28.374-31.278-4.504-61.314-3.143-89.063 3.235-2.535.583-4.937-1.376-4.883-3.977l5.621-270.627c.038-1.811 1.283-3.384 3.045-3.806 28.307-6.78 59.038-8.32 91.073-3.706 32.336 4.657 63.093 15.164 91.162 30.257 1.32.71 2.127 2.109 2.095 3.609z" fill="#aba6d5"/><path d="m448.47 424.798c-4.555 5.19-9.317 10.194-14.273 15h-356.394c-4.956-4.806-9.718-9.81-14.273-15h184.97v-124.798h15v124.798z" fill="#2cb3cd"/><path d="m35.092 52.91c34.17-11.048 71.454-17.125 110.49-17.125 40.089 0 78.331 6.409 113.249 18.03v280.39c-34.918-11.621-73.16-18.03-113.249-18.03-38.115 0-74.559 5.793-108.066 16.351-2.571.81-5.183-1.121-5.183-3.816v-271.99c0-1.732 1.111-3.277 2.759-3.81z" fill="#a6e0ec"/><path d="m366.418 35.785c39.036 0 76.32 6.076 110.49 17.125 1.648.533 2.759 2.078 2.759 3.81v271.99c0 2.695-2.612 4.626-5.183 3.816-33.507-10.558-69.951-16.351-108.066-16.351-40.089 0-78.331 6.409-113.249 18.03v-280.39c34.918-11.621 73.16-18.03 113.249-18.03z" fill="#c2eaf2"/><path d="m282.813 93.181c-1.308-3.93.817-8.177 4.748-9.484 25.569-8.51 52.658-12.825 80.514-12.825 27.126 0 53.554 4.098 78.55 12.18 3.941 1.274 6.103 5.503 4.829 9.444-1.275 3.94-5.505 6.103-9.444 4.828-23.503-7.599-48.378-11.452-73.935-11.452-26.242 0-51.737 4.057-75.777 12.058-.785.262-1.584.386-2.369.386-3.142-.002-6.069-1.991-7.116-5.135zm163.812 22.221c-24.996-8.083-51.424-12.181-78.55-12.181-27.854 0-54.942 4.314-80.514 12.824-3.931 1.308-6.056 5.554-4.748 9.484 1.046 3.145 3.974 5.134 7.115 5.134.785 0 1.584-.124 2.369-.386 24.041-8 49.536-12.057 75.777-12.057 25.557 0 50.432 3.854 73.935 11.453 3.939 1.27 8.169-.889 9.444-4.829s-.887-8.168-4.828-9.442zm-156.696 47.613c.785 0 1.584-.124 2.369-.386 24.043-8.001 49.538-12.058 75.777-12.058 10.333 0 20.71.646 30.845 1.918 4.104.517 7.858-2.396 8.376-6.507.517-4.109-2.397-7.86-6.507-8.376-10.752-1.351-21.759-2.035-32.714-2.035-27.853 0-54.94 4.315-80.514 12.825-3.931 1.308-6.056 5.554-4.748 9.484 1.046 3.145 3.974 5.135 7.116 5.135zm156.696 17.087c-24.996-8.082-51.424-12.18-78.55-12.18-27.855 0-54.944 4.315-80.514 12.825-3.931 1.308-6.056 5.555-4.748 9.484 1.047 3.145 3.974 5.134 7.115 5.134.785 0 1.584-.124 2.369-.386 24.04-8.001 49.535-12.058 75.777-12.058 25.557 0 50.432 3.854 73.935 11.452 3.939 1.274 8.169-.888 9.444-4.828 1.275-3.941-.887-8.169-4.828-9.443zm0 32.351c-24.996-8.083-51.424-12.181-78.55-12.181-27.854 0-54.942 4.314-80.514 12.824-3.931 1.308-6.056 5.554-4.748 9.484 1.046 3.145 3.974 5.134 7.115 5.134.785 0 1.584-.124 2.369-.386 24.041-8 49.536-12.057 75.777-12.057 25.557 0 50.432 3.854 73.935 11.453 3.939 1.269 8.169-.889 9.444-4.829s-.887-8.168-4.828-9.442zm0 64.699c-7.987-2.582-16.252-4.788-24.563-6.557-4.047-.864-8.035 1.724-8.896 5.775-.862 4.052 1.724 8.034 5.775 8.896 7.81 1.661 15.571 3.733 23.069 6.157.767.248 1.545.366 2.31.366 3.165 0 6.107-2.021 7.135-5.194 1.273-3.94-.889-8.168-4.83-9.443zm-222.187-193.456c-25.569-8.51-52.658-12.825-80.514-12.825-27.126 0-53.554 4.098-78.55 12.18-3.941 1.274-6.103 5.503-4.829 9.444 1.276 3.941 5.504 6.104 9.444 4.828 23.503-7.599 48.378-11.452 73.935-11.452 26.242 0 51.737 4.057 75.777 12.058.786.262 1.584.386 2.369.386 3.142 0 6.068-1.989 7.115-5.134 1.309-3.93-.816-8.177-4.747-9.485zm0 32.35c-25.571-8.51-52.659-12.824-80.514-12.824-4.143 0-7.5 3.357-7.5 7.5s3.357 7.5 7.5 7.5c26.241 0 51.736 4.057 75.777 12.057.786.262 1.584.386 2.369.386 3.142 0 6.069-1.989 7.115-5.134 1.309-3.931-.816-8.177-4.747-9.485zm0 32.35c-25.573-8.51-52.661-12.825-80.514-12.825-27.122 0-53.55 4.098-78.55 12.18-3.94 1.274-6.103 5.503-4.829 9.444 1.274 3.94 5.499 6.101 9.444 4.829 23.506-7.6 48.381-11.453 73.935-11.453 26.239 0 51.734 4.057 75.777 12.058.786.262 1.584.386 2.369.386 3.142 0 6.069-1.989 7.115-5.134 1.309-3.931-.816-8.177-4.747-9.485zm0 32.351c-25.569-8.51-52.658-12.825-80.514-12.825-27.126 0-53.554 4.098-78.55 12.18-3.941 1.274-6.103 5.503-4.829 9.444 1.276 3.942 5.504 6.104 9.444 4.828 23.503-7.599 48.378-11.452 73.935-11.452 26.242 0 51.737 4.057 75.777 12.058.786.262 1.584.386 2.369.386 3.142 0 6.068-1.989 7.115-5.134 1.309-3.93-.816-8.177-4.747-9.485zm0 32.35c-25.571-8.51-52.659-12.824-80.514-12.824-27.126 0-53.554 4.098-78.55 12.181-3.941 1.273-6.103 5.502-4.829 9.443 1.276 3.941 5.504 6.099 9.444 4.829 23.503-7.6 48.378-11.453 73.935-11.453 26.241 0 51.736 4.057 75.777 12.057.786.262 1.584.386 2.369.386 3.142 0 6.069-1.989 7.115-5.134 1.309-3.932-.816-8.178-4.747-9.485zm0 32.35c-25.573-8.51-52.661-12.825-80.514-12.825-27.124 0-53.552 4.099-78.55 12.182-3.941 1.273-6.103 5.502-4.829 9.443 1.276 3.941 5.504 6.099 9.444 4.829 23.505-7.601 48.38-11.454 73.935-11.454 26.239 0 51.734 4.057 75.777 12.058.786.262 1.584.386 2.369.386 3.142 0 6.069-1.989 7.115-5.134 1.309-3.931-.816-8.177-4.747-9.485zm0 32.351c-25.569-8.51-52.658-12.825-80.514-12.825-27.122 0-53.55 4.098-78.55 12.18-3.94 1.274-6.103 5.503-4.829 9.444 1.274 3.94 5.499 6.1 9.444 4.829 23.506-7.6 48.381-11.453 73.935-11.453 26.242 0 51.737 4.057 75.777 12.058.786.262 1.584.386 2.369.386 3.142 0 6.068-1.989 7.115-5.134 1.309-3.93-.816-8.178-4.747-9.485z" fill="#2cb3cd"/><path d="m248.5 352.5v-305c0-4.142 3.358-7.5 7.5-7.5 4.142 0 7.5 3.358 7.5 7.5v305c0 4.142-3.358 7.5-7.5 7.5-4.142 0-7.5-3.358-7.5-7.5z" fill="#7cd2e3"/><path d="m281 425c0 13.807-11.193 25-25 25s-25-11.193-25-25 11.193-25 25-25 25 11.193 25 25z" fill="#def4f8"/><path d="m281 425c0 3.126-.574 6.119-1.622 8.878-2.759 1.048-5.751 1.622-8.878 1.622-13.807 0-25-11.193-25-25 0-3.126.574-6.119 1.622-8.878 2.759-1.048 5.751-1.622 8.878-1.622 13.807 0 25 11.193 25 25z" fill="#fff5f5"/><path d="m231.598 357.349-120.836-231.6c-3.447-6.607-10.28-10.749-17.731-10.749h-28.031c-5.523 0-10 4.477-10 10v270c0 5.523 4.477 10 10 10h160c5.523 0 10-4.477 10-10v-23.774c0-4.832-1.167-9.593-3.402-13.877zm-60.922-2.349h-63.676c-1.104 0-2-.896-2-2v-122.047c0-2.092 2.806-2.78 3.773-.925l63.676 122.046c.695 1.332-.271 2.926-1.773 2.926z" fill="#ffc14f"/><path d="m86.502 405h-21.502c-5.523 0-10-4.477-10-10v-270c0-5.523 4.477-10 10-10h21.502c-5.523 0-10 4.477-10 10v270c0 5.523 4.477 10 10 10z" fill="#ff9f22"/><path d="m72.5 236.25h-17.5v-15h17.5c4.142 0 7.5 3.358 7.5 7.5s-3.358 7.5-7.5 7.5zm7.5-40c0-4.142-3.358-7.5-7.5-7.5h-17.5v15h17.5c4.142 0 7.5-3.358 7.5-7.5zm0-65c0-4.142-3.358-7.5-7.5-7.5h-17.422c-.051.41-.078.827-.078 1.25v13.75h17.5c4.142 0 7.5-3.358 7.5-7.5zm10 32.5c0-4.142-3.358-7.5-7.5-7.5h-27.5v15h27.5c4.142 0 7.5-3.358 7.5-7.5zm-17.5 217.5h-17.5v13.75c0 .423.027.84.078 1.25h17.422c4.142 0 7.5-3.358 7.5-7.5s-3.358-7.5-7.5-7.5zm7.5-87.5c0-4.142-3.358-7.5-7.5-7.5h-17.5v15h17.5c4.142 0 7.5-3.358 7.5-7.5zm2.5 57.5h-27.5v15h27.5c4.142 0 7.5-3.358 7.5-7.5s-3.358-7.5-7.5-7.5zm0-97.5h-27.5v15h27.5c4.142 0 7.5-3.358 7.5-7.5s-3.358-7.5-7.5-7.5zm-2.5 72.5c0-4.142-3.358-7.5-7.5-7.5h-17.5v15h17.5c4.142 0 7.5-3.358 7.5-7.5z" fill="#dd7d00"/><path d="m225.79 346.219-21.779 10.69c-3.718 1.825-8.212.29-10.037-3.428s-.29-8.212 3.428-10.038l21.448-10.527zm-27.122-22.892 12.084-5.931-6.941-13.303-11.753 5.769c-3.718 1.825-5.253 6.319-3.428 10.037 1.826 3.718 6.32 5.253 10.038 3.428zm-9.894-48.057-11.035 5.417c-3.718 1.825-5.253 6.319-3.428 10.037s6.319 5.253 10.037 3.428l11.367-5.579zm-74.926-124.749 7.833-3.845-6.94-13.303-7.502 3.682c-3.718 1.825-5.253 6.319-3.428 10.037s6.319 5.255 10.037 3.429zm119.672 211.398-12.821 6.293c-3.718 1.825-5.253 6.319-3.428 10.037s6.319 5.253 10.037 3.428l7.691-3.775v-6.676c.001-3.171-.502-6.312-1.479-9.307zm-89.86-173.117-8.882 4.36c-3.718 1.825-5.253 6.319-3.428 10.037s6.319 5.253 10.037 3.428l9.213-4.522zm30.076 57.645-19.295 9.471c-3.718 1.825-5.253 6.319-3.428 10.038 1.825 3.718 6.319 5.253 10.037 3.428l19.626-9.633zm-45.114-86.468-17.141 8.414c-3.719 1.825-5.253 6.319-3.428 10.038 1.825 3.718 6.319 5.253 10.038 3.428l17.473-8.576zm27.085 75.823 9.931-4.875-6.941-13.303-9.6 4.712c-3.719 1.825-5.253 6.319-3.428 10.037 1.826 3.72 6.32 5.254 10.038 3.429z" fill="#ffd993"/><path d="m333.558 305.833c0 4.142-3.358 7.5-7.5 7.5h-5v5c0 4.142-3.358 7.5-7.5 7.5s-7.5-3.358-7.5-7.5v-5h-5c-4.142 0-7.5-3.358-7.5-7.5 0-4.142 3.358-7.5 7.5-7.5h5v-5c0-4.142 3.358-7.5 7.5-7.5s7.5 3.358 7.5 7.5v5h5c4.142 0 7.5 3.358 7.5 7.5z" fill="#def4f8"/><path d="m384.892 256c0 4.142-3.358 7.5-7.5 7.5h-5v5c0 4.142-3.358 7.5-7.5 7.5s-7.5-3.358-7.5-7.5v-5h-5c-4.142 0-7.5-3.358-7.5-7.5 0-4.142 3.358-7.5 7.5-7.5h5v-5c0-4.142 3.358-7.5 7.5-7.5s7.5 3.358 7.5 7.5v5h5c4.142 0 7.5 3.358 7.5 7.5z" fill="#fff5f5"/></g></svg>