<svg id="Layer_1" enable-background="new 0 0 512 512" height="512" viewBox="0 0 512 512" width="512" xmlns="http://www.w3.org/2000/svg"><g><g id="XMLID_64_"><g><g id="XMLID_1436_"><g id="XMLID_1452_"><g id="XMLID_1484_"><g id="XMLID_1485_"><g id="XMLID_1500_"><g id="XMLID_1529_"><g id="XMLID_1530_"><g id="XMLID_1559_"><g id="XMLID_1560_"><g id="XMLID_1575_"><g id="XMLID_1576_"><g id="XMLID_1577_"><g id="XMLID_1578_"><g id="XMLID_1579_"><circle cx="256" cy="256" fill="#ff807d" r="256"/></g></g></g></g></g></g></g></g></g></g></g></g></g></g></g></g><path d="m512 256c0-26.203-3.946-51.484-11.26-75.289l-41.275-41.275-402.028 238.03 123.274 123.274c23.805 7.314 49.086 11.26 75.289 11.26 141.385 0 256-114.615 256-256z" fill="#fc3e53"/><g><path d="m436.778 383.646h-361.556c-15.877 0-28.868-12.99-28.868-28.868v-197.557c0-15.877 12.99-28.868 28.868-28.868h361.556c15.877 0 28.868 12.99 28.868 28.868v197.557c-.001 15.878-12.991 28.868-28.868 28.868z" fill="#fedd55"/><path d="m465.65 157.22v197.56c0 15.88-13 28.87-28.87 28.87h-180.78v-255.3h180.78c15.87 0 28.87 12.99 28.87 28.87z" fill="#fcc63d"/><g><path d="m215.249 331.945h-127.831v-35.513c0-24.6 19.942-44.543 44.543-44.543h38.745c24.6 0 44.543 19.943 44.543 44.543z" fill="#238cf8"/><ellipse cx="151.333" cy="221.606" fill="#fff" rx="41.552" ry="41.552" transform="matrix(.23 -.973 .973 .23 -99.114 317.976)"/></g><g><path d="m256 207.281h153.667v32.322h-153.667z" fill="#57555c"/></g><g><g><path d="m256 272.397h153.667v32.322h-153.667z" fill="#57555c"/></g></g></g></g></svg>