<svg height="512pt" viewBox="0 0 512 512" width="512pt" xmlns="http://www.w3.org/2000/svg"><path d="m512 256c0 141.386719-114.613281 256-256 256s-256-114.613281-256-256 114.613281-256 256-256 256 114.613281 256 256zm0 0" fill="#ffd400"/><path d="m404.90625 185.292969-92.925781 92.925781-57.582031-57.582031-9.917969 9.917969-112.554688-112.558594-6.359375 6.359375-17.359375-17.359375-26.308593 26.3125 20.898437 20.894531-2.652344 220.6875 57.582031 57.582031-.910156.90625 77.71875 77.71875c7.078125.585938 14.234375.902344 21.464844.902344 129.816406 0 237.050781-96.628906 253.730469-221.882812zm0 0" fill="#fdbf00"/><path d="m396.917969 192.75v154.582031h-65.625l-22.605469-21.875h-43.75l-21.875 21.875h-65.625v-154.582031l109.375-109.375zm0 0" fill="#ececf1"/><path d="m396.917969 192.75v154.582031h-65.625l-22.605469-21.875h-21.875v-242.082031zm0 0" fill="#e2e2e7"/><path d="m89.207031 104.738281h21.875v254.773438h-21.875zm0 0" fill="#6e6e6e"/><path d="m100.144531 104.738281h10.941407v254.773438h-10.941407zm0 0" fill="#5a5a5a"/><path d="m132.957031 118.738281-15.53125 15.53125-17.28125-14.21875-17.28125 14.21875-15.53125-15.53125 32.8125-29.53125zm0 0" fill="#6e6e6e"/><path d="m132.957031 345.511719-32.8125 29.53125-32.8125-29.53125 15.53125-15.53125 17.28125 14.214843 17.28125-14.214843zm0 0" fill="#6e6e6e"/><path d="m440.667969 220.96875-15.53125 15.53125-138.324219-137.59375-138.542969 137.59375-15.3125-15.53125 153.855469-153.636719zm0 0" fill="#ff7816"/><path d="m243.0625 236.5h88.230469v110.832031h-88.230469zm0 0" fill="#6e6e6e"/><path d="m411.058594 440.667969-15.464844-15.46875 14.140625-17.34375-14.140625-17.347657 15.464844-15.464843 29.609375 32.8125zm0 0" fill="#5a5a5a"/><path d="m163.296875 440.667969-30.339844-32.8125 30.339844-32.8125 15.464844 15.464843-14.140625 17.347657 14.140625 17.34375zm0 0" fill="#6e6e6e"/><path d="m143.894531 396.917969h285.835938v21.875h-285.835938zm0 0" fill="#6e6e6e"/><g fill="#5a5a5a"><path d="m286.8125 236.5h44.480469v110.832031h-44.480469zm0 0"/><path d="m286.8125 396.917969h142.917969v21.875h-142.917969zm0 0"/><path d="m117.425781 329.980469 15.53125 15.53125-32.8125 29.53125v-30.847657zm0 0"/><path d="m117.425781 134.269531-17.28125-14.21875v-30.84375l32.8125 29.53125zm0 0"/></g><path d="m286.8125 170.875c-12.03125 0-21.875 9.84375-21.875 21.875s9.84375 21.875 21.875 21.875 21.875-9.84375 21.875-21.875-9.84375-21.875-21.875-21.875zm0 0" fill="#78b9eb"/><path d="m308.6875 192.75c0 12.03125-9.84375 21.875-21.875 21.875v-43.75c12.03125 0 21.875 9.84375 21.875 21.875zm0 0" fill="#5aaae7"/><path d="m440.667969 220.96875-15.53125 15.53125-138.324219-137.59375v-31.574219zm0 0" fill="#ff4b00"/></svg>